<?xml version="1.0" encoding="UTF-8" ?>
<!DOCTYPE svg PUBLIC "-//W3C//DTD SVG 1.1//EN" "http://www.w3.org/Graphics/SVG/1.1/DTD/svg11.dtd">
<svg width="1544pt" height="744pt" viewBox="0 0 1544 744" version="1.1" xmlns="http://www.w3.org/2000/svg">
<g id="#010000ff">
<path fill="#010000" opacity="1.00" d=" M 773.06 0.00 L 773.44 0.00 C 781.38 8.85 790.20 16.87 798.38 25.49 C 799.71 26.66 800.89 28.55 802.91 28.44 C 815.83 28.64 828.75 28.38 841.68 28.54 C 841.53 41.94 841.58 55.34 841.54 68.74 C 851.19 78.07 860.39 87.86 870.16 97.07 C 860.46 106.35 851.17 116.05 841.52 125.39 C 841.49 138.78 841.50 152.17 841.52 165.56 C 828.03 165.72 814.55 165.41 801.06 165.62 C 793.55 173.64 785.52 181.16 777.88 189.04 C 776.26 190.69 774.77 192.49 772.84 193.78 C 763.26 184.52 754.00 174.85 744.51 165.47 C 731.14 165.55 717.78 165.49 704.42 165.50 C 704.34 152.02 704.53 138.55 704.43 125.07 C 694.66 116.01 685.73 106.07 675.90 97.08 C 684.08 88.85 692.31 80.67 700.57 72.52 C 702.33 70.67 704.99 68.94 704.51 65.99 C 704.51 53.47 704.49 40.95 704.49 28.43 C 718.00 28.32 731.51 28.55 745.02 28.41 C 754.15 18.73 763.89 9.64 773.06 0.00 M 771.93 21.49 C 765.00 28.58 758.00 35.61 750.96 42.60 C 740.43 42.73 729.90 42.67 719.38 42.48 C 717.68 53.06 719.62 64.01 718.40 74.59 C 711.70 82.00 704.14 88.62 697.30 95.90 C 696.87 99.39 700.87 100.89 702.79 103.21 C 707.88 108.66 713.40 113.69 718.59 119.05 C 718.73 129.58 718.69 140.11 718.47 150.63 C 729.03 152.36 739.94 150.45 750.54 151.60 C 757.97 158.29 764.59 165.87 771.90 172.70 C 772.45 172.67 773.55 172.60 774.10 172.57 C 780.11 166.41 786.37 160.48 792.25 154.19 C 793.62 152.98 794.92 151.18 796.99 151.35 C 806.75 151.22 816.52 151.49 826.29 151.35 C 827.65 150.28 827.23 148.49 827.34 146.99 C 827.30 138.32 827.26 129.64 827.31 120.97 C 827.22 118.92 829.23 117.76 830.40 116.36 C 836.75 110.35 842.70 103.93 849.13 98.00 C 847.89 93.64 843.41 91.61 840.72 88.27 C 836.88 83.76 832.11 80.17 828.24 75.69 C 827.00 74.46 827.41 72.55 827.30 70.98 C 827.42 61.80 827.26 52.60 827.51 43.42 C 817.15 41.78 806.53 43.33 796.08 42.62 C 794.35 41.97 793.21 40.33 791.88 39.13 C 787.00 33.95 781.79 29.09 776.90 23.92 C 775.49 22.62 774.14 20.38 771.93 21.49 Z" />
<path fill="#010000" opacity="1.00" d=" M 43.57 236.65 C 60.89 225.94 82.23 223.31 102.12 226.22 C 116.21 228.27 130.02 236.35 136.46 249.40 C 144.43 264.87 142.40 283.49 136.09 299.17 C 124.67 295.11 113.26 291.04 101.84 286.98 C 109.69 276.67 113.27 262.76 109.76 250.13 C 108.03 243.43 102.64 237.62 95.74 236.22 C 88.85 234.87 81.60 235.70 74.99 237.97 C 62.16 242.67 52.73 253.73 46.71 265.65 C 36.58 285.84 33.32 308.94 34.47 331.34 C 35.74 350.65 40.30 370.41 51.45 386.53 C 59.50 398.18 72.55 406.93 87.03 407.15 C 100.65 408.16 112.64 399.22 120.20 388.63 C 124.72 393.37 129.20 398.15 133.68 402.93 C 121.56 413.78 104.75 417.34 88.92 417.66 C 71.26 418.01 53.22 413.66 38.70 403.33 C 21.17 391.32 9.53 372.08 4.18 351.76 C -2.01 328.46 -0.91 303.21 7.67 280.65 C 14.55 262.69 26.88 246.50 43.57 236.65 Z" />
<path fill="#010000" opacity="1.00" d=" M 279.45 242.37 C 291.51 230.78 308.53 225.83 324.92 225.07 C 340.37 224.56 356.57 227.57 369.37 236.66 C 377.11 242.10 382.98 250.14 385.67 259.23 C 385.85 248.40 385.69 237.58 385.75 226.75 C 432.33 226.73 478.92 226.78 525.50 226.73 C 526.30 227.04 527.02 227.50 527.66 228.10 C 527.16 240.50 527.56 252.93 527.45 265.34 C 520.25 253.61 509.17 244.18 496.00 239.91 C 488.45 237.23 480.35 237.03 472.43 237.20 C 472.45 280.81 472.43 324.43 472.44 368.04 C 472.49 378.06 472.18 388.09 473.01 398.09 C 473.51 401.12 470.82 403.08 469.01 405.03 C 465.56 408.27 462.73 412.09 459.59 415.62 C 450.71 416.50 441.77 415.86 432.87 416.09 C 440.68 407.37 440.59 395.03 440.68 384.03 C 440.69 335.08 440.68 286.13 440.69 237.19 C 434.10 237.13 427.42 237.07 421.01 238.78 C 406.84 242.29 394.40 251.63 386.65 263.95 C 388.28 275.92 386.05 288.19 381.15 299.17 C 369.69 295.45 358.21 291.79 346.74 288.09 C 353.65 280.10 356.95 269.43 356.84 258.95 C 356.67 252.55 353.89 246.24 349.00 242.05 C 336.91 231.68 316.14 233.74 306.72 246.75 C 301.21 254.24 301.23 264.43 304.18 272.93 C 306.95 281.49 313.13 288.41 320.03 293.97 C 338.82 310.31 362.32 320.30 380.24 337.74 C 388.48 345.81 395.41 356.22 396.09 368.04 C 397.04 377.58 393.70 387.29 387.29 394.36 C 376.48 406.58 360.73 413.41 344.91 416.24 C 325.69 419.50 305.75 416.96 287.44 410.54 C 277.68 406.95 268.65 401.42 261.04 394.34 C 266.36 387.10 271.52 379.74 276.82 372.48 C 284.49 386.21 296.01 398.52 311.08 403.93 C 321.98 408.06 334.49 407.92 345.16 403.16 C 351.68 400.12 357.73 395.02 360.13 388.03 C 362.35 381.71 360.93 374.72 358.23 368.78 C 355.23 362.19 350.06 356.92 344.55 352.35 C 325.85 336.04 302.80 325.45 285.02 308.00 C 275.15 298.62 267.26 285.98 267.37 271.97 C 266.87 260.92 271.44 249.96 279.45 242.37 Z" />
<path fill="#010000" opacity="1.00" d=" M 1280.03 241.02 C 1292.39 231.71 1307.50 226.33 1322.93 225.41 C 1338.01 224.40 1354.39 225.72 1366.99 234.93 C 1376.27 241.38 1382.12 251.94 1383.94 262.98 C 1385.99 275.20 1383.61 287.76 1379.08 299.17 C 1367.67 295.10 1356.26 291.04 1344.85 286.98 C 1352.52 276.87 1356.10 263.38 1352.99 250.93 C 1351.47 244.40 1346.70 238.46 1340.13 236.60 C 1333.60 234.81 1326.60 235.52 1320.15 237.27 C 1307.24 241.08 1297.43 251.57 1291.08 263.06 C 1280.35 282.80 1276.68 305.72 1277.32 327.99 C 1278.09 346.57 1281.92 365.46 1291.33 381.69 C 1297.39 392.04 1306.51 401.16 1318.08 405.01 C 1326.07 407.49 1335.03 408.31 1342.96 405.15 C 1351.43 402.12 1357.87 395.53 1363.33 388.63 C 1367.68 393.48 1372.24 398.15 1376.68 402.93 C 1364.85 413.55 1348.46 417.16 1332.97 417.64 C 1315.20 418.14 1296.97 414.01 1282.27 403.72 C 1267.33 393.72 1256.56 378.34 1250.32 361.64 C 1241.42 337.46 1240.92 310.30 1248.85 285.80 C 1254.53 268.27 1265.10 252.02 1280.03 241.02 Z" />
<path fill="#010000" opacity="1.00" d=" M 1442.90 227.91 C 1456.70 224.22 1471.51 224.15 1485.35 227.73 C 1502.79 232.48 1517.72 244.63 1527.27 259.82 C 1538.11 276.63 1542.91 296.65 1544.00 316.45 L 1544.00 326.54 C 1542.94 347.31 1537.51 368.31 1525.61 385.59 C 1514.76 401.72 1497.40 413.77 1478.01 416.63 C 1461.45 419.08 1443.72 417.42 1428.95 409.07 C 1417.02 402.47 1407.17 392.42 1400.29 380.69 C 1389.26 362.21 1384.66 340.38 1384.97 319.00 C 1385.41 297.34 1391.03 275.37 1403.30 257.31 C 1412.64 243.42 1426.69 232.45 1442.90 227.91 M 1456.48 236.55 C 1450.96 237.90 1445.99 240.98 1441.94 244.91 C 1431.15 255.34 1425.70 269.93 1422.21 284.22 C 1416.78 308.65 1416.62 334.36 1422.24 358.77 C 1425.99 373.87 1431.95 389.47 1444.11 399.82 C 1455.31 409.65 1473.65 409.68 1484.88 399.88 C 1497.52 389.12 1503.36 372.74 1507.06 357.04 C 1512.34 332.91 1512.03 307.60 1506.59 283.52 C 1502.89 268.61 1496.91 253.30 1484.98 243.04 C 1477.32 236.28 1466.29 234.07 1456.48 236.55 Z" />
<path fill="#010000" opacity="1.00" d=" M 177.00 226.88 C 183.57 226.91 190.13 226.78 196.70 226.96 C 216.11 279.95 235.70 332.87 255.22 385.81 C 259.34 397.21 264.99 408.68 274.96 416.09 C 261.06 415.98 247.16 416.19 233.26 415.98 C 224.37 391.53 215.21 367.18 206.31 342.73 C 205.84 359.44 204.34 376.46 198.13 392.14 C 194.92 400.18 190.06 407.98 182.64 412.74 C 174.58 417.99 164.31 418.66 155.12 416.60 C 147.17 414.87 140.73 408.72 137.51 401.40 C 134.65 394.67 133.56 387.27 133.86 379.99 C 134.28 368.75 136.84 357.70 140.17 346.99 C 152.45 306.95 164.72 266.91 177.00 226.88 M 160.42 317.08 C 156.42 329.82 152.90 342.80 151.61 356.13 C 150.94 364.00 151.02 372.06 153.16 379.72 C 155.02 385.98 158.69 392.20 164.69 395.24 C 169.91 397.75 176.76 398.29 181.52 394.51 C 187.00 390.09 189.50 383.17 191.41 376.63 C 196.08 359.52 196.61 341.59 195.80 323.97 C 195.33 318.29 195.37 312.40 193.16 307.05 C 187.67 292.49 182.42 277.84 176.89 263.29 C 171.33 281.20 165.92 299.15 160.42 317.08 Z" />
<path fill="#010000" opacity="1.00" d=" M 528.29 228.20 C 528.18 227.81 527.95 227.04 527.84 226.66 C 543.53 226.83 559.22 226.77 574.91 226.69 C 567.19 235.16 567.18 247.28 567.07 258.04 C 567.06 300.68 567.04 343.32 567.09 385.96 C 567.18 396.36 567.49 407.92 574.88 416.09 C 559.02 416.05 543.17 416.02 527.31 416.11 C 531.15 412.03 533.26 406.73 534.32 401.31 C 534.72 398.38 536.83 396.25 538.43 393.93 C 539.88 391.18 540.25 388.02 541.27 385.12 C 541.30 383.03 541.30 380.95 541.27 378.87 C 540.18 375.12 539.31 371.27 537.39 367.83 C 536.04 365.40 535.25 362.71 535.33 359.92 C 535.28 329.63 535.32 299.33 535.31 269.03 C 535.23 259.88 535.64 250.67 534.28 241.58 C 533.37 236.77 531.85 231.74 528.29 228.20 Z" />
<path fill="#010000" opacity="1.00" d=" M 584.34 226.70 C 600.18 226.78 616.02 226.79 631.86 226.69 C 623.60 235.66 624.25 248.64 624.06 259.99 C 624.08 308.52 624.03 357.05 624.08 405.57 C 634.71 405.50 645.34 405.65 655.96 405.50 C 674.73 404.82 692.02 393.43 701.63 377.55 C 701.69 389.51 701.50 401.49 701.71 413.45 C 701.83 413.78 702.07 414.45 702.19 414.79 C 702.48 414.83 703.06 414.93 703.35 414.97 C 710.61 405.65 710.00 393.22 710.18 382.06 C 710.16 340.39 710.22 298.73 710.15 257.06 C 710.07 246.60 709.78 234.93 702.35 226.70 C 720.90 226.82 739.46 226.72 758.01 226.75 C 773.78 226.52 790.05 227.01 804.84 233.10 C 815.17 237.29 824.39 245.31 828.13 256.04 C 831.93 267.03 831.98 279.80 826.10 290.09 C 819.03 302.77 806.74 311.42 794.36 318.41 C 786.09 323.25 777.29 327.14 769.04 332.01 C 766.87 333.49 763.86 335.01 763.79 338.02 C 767.54 341.05 772.62 341.49 777.09 342.93 C 793.23 347.37 810.17 351.20 824.00 361.12 C 828.71 364.38 832.80 368.85 834.53 374.42 C 838.06 385.73 833.44 399.04 823.53 405.60 C 810.86 414.27 794.95 415.95 779.99 416.05 C 714.76 416.09 649.54 416.00 584.31 416.11 C 591.93 408.10 592.18 396.40 592.29 386.03 C 592.32 342.71 592.34 299.38 592.28 256.06 C 592.17 245.91 591.75 234.52 584.34 226.70 M 741.95 237.19 C 741.98 293.32 741.85 349.45 742.01 405.58 C 754.33 405.54 766.65 405.56 778.98 405.58 C 784.01 405.68 789.21 405.16 793.74 402.80 C 802.02 398.76 807.82 389.26 806.04 379.98 C 805.11 373.54 801.01 367.82 795.37 364.64 C 785.93 358.50 774.90 355.79 764.67 351.36 C 760.70 349.61 756.63 347.53 753.95 344.00 C 751.52 340.67 752.07 336.15 753.52 332.53 C 755.62 327.33 760.38 323.98 764.63 320.63 C 772.71 314.78 781.52 309.76 788.52 302.52 C 794.36 296.35 798.65 288.47 799.28 279.88 C 800.29 268.26 798.14 255.60 790.35 246.52 C 785.12 240.38 776.98 237.50 769.08 237.29 C 760.03 237.06 750.99 237.25 741.95 237.19 Z" />
<path fill="#010000" opacity="1.00" d=" M 837.34 226.70 C 853.18 226.78 869.02 226.79 884.85 226.69 C 875.94 236.53 877.34 250.71 877.06 262.99 C 877.08 310.52 877.03 358.05 877.08 405.57 C 887.05 405.53 897.02 405.59 907.00 405.55 C 926.36 405.56 944.65 394.12 954.49 377.67 C 954.81 390.45 954.52 403.23 954.64 416.02 C 915.53 416.15 876.42 415.97 837.31 416.11 C 845.42 407.54 845.17 394.99 845.31 383.98 C 845.29 341.34 845.35 298.70 845.28 256.06 C 845.17 245.90 844.75 234.53 837.34 226.70 Z" />
<path fill="#010000" opacity="1.00" d=" M 1002.00 226.88 C 1008.55 226.89 1015.10 226.82 1021.66 226.93 C 1038.97 274.08 1056.40 321.19 1073.76 368.33 C 1079.66 382.99 1083.28 399.39 1094.52 411.14 C 1101.17 398.91 1103.06 384.74 1103.65 371.03 C 1103.74 339.69 1103.65 308.36 1103.69 277.03 C 1103.83 265.19 1102.43 253.27 1098.98 241.93 C 1097.29 236.35 1094.55 231.09 1090.66 226.73 C 1104.70 226.78 1118.73 226.72 1132.77 226.76 C 1161.70 278.91 1190.34 331.21 1219.48 383.24 C 1219.52 352.82 1219.48 322.40 1219.50 291.99 C 1219.38 279.98 1220.08 267.88 1218.01 255.99 C 1216.24 245.64 1213.73 234.75 1206.49 226.73 C 1218.66 226.76 1230.82 226.76 1242.99 226.73 C 1235.78 234.70 1233.26 245.52 1231.50 255.83 C 1229.34 268.11 1230.15 280.61 1230.00 293.01 C 1230.09 320.02 1229.82 347.04 1230.13 374.05 C 1231.32 388.61 1233.13 404.50 1242.95 416.06 C 1228.95 416.07 1214.95 416.06 1200.95 416.06 C 1172.00 363.86 1143.22 311.57 1114.21 259.40 C 1114.16 290.28 1114.20 321.15 1114.19 352.03 C 1114.28 363.64 1113.63 375.34 1115.67 386.84 C 1117.45 397.18 1119.94 408.09 1127.23 416.08 C 1104.25 416.00 1081.26 416.17 1058.27 415.99 C 1049.37 391.55 1040.21 367.20 1031.32 342.74 C 1030.85 357.64 1029.70 372.71 1025.00 386.95 C 1021.94 396.39 1017.19 405.86 1008.98 411.83 C 1000.56 418.00 989.28 418.87 979.38 416.42 C 970.18 414.10 963.36 405.97 960.93 397.03 C 956.51 382.13 959.81 366.33 963.76 351.70 C 976.43 310.07 989.27 268.49 1002.00 226.88 M 1001.80 263.66 C 995.30 284.55 988.95 305.49 982.60 326.43 C 978.47 341.35 974.96 356.89 976.71 372.45 C 977.66 380.65 980.80 389.34 987.87 394.18 C 993.67 397.96 1002.33 398.74 1007.60 393.60 C 1013.48 387.89 1015.73 379.63 1017.61 371.91 C 1021.59 353.78 1021.79 335.00 1020.24 316.57 C 1019.97 309.78 1016.67 303.74 1014.57 297.43 C 1010.24 286.20 1006.54 274.71 1001.80 263.66 Z" />
<path fill="#010000" opacity="1.00" d=" M 516.48 369.34 C 518.29 367.31 520.73 365.11 523.70 365.91 C 527.97 366.86 529.25 371.62 530.84 375.10 C 533.31 380.79 532.43 387.77 528.32 392.47 C 490.34 433.90 453.78 476.62 417.82 519.82 C 372.79 574.98 327.87 630.47 288.76 690.04 C 288.53 690.67 288.08 691.92 287.85 692.55 C 294.72 691.59 301.24 689.16 307.95 687.49 C 315.34 685.70 322.65 683.56 330.11 682.07 C 373.64 671.65 417.87 664.41 462.16 658.10 C 547.69 646.94 633.74 640.21 719.93 637.43 C 735.95 637.21 751.96 636.12 768.00 636.32 C 776.01 636.54 783.99 635.59 792.01 635.65 C 829.33 635.40 866.65 635.44 903.97 635.71 C 914.95 636.86 926.00 635.92 937.01 636.66 C 951.34 637.32 965.68 637.41 980.02 637.79 C 991.34 638.74 1002.73 638.17 1014.06 639.04 C 1039.95 640.12 1065.82 641.26 1091.69 642.67 C 1087.92 643.86 1083.95 643.52 1080.07 643.62 C 1060.02 644.62 1039.97 645.38 1019.91 645.86 C 1011.64 646.82 1003.32 646.44 995.03 646.72 C 987.69 647.43 980.31 647.27 972.96 647.66 C 963.29 647.45 953.68 648.81 944.02 648.55 C 913.36 649.63 882.69 650.64 852.04 651.92 C 749.51 655.70 646.83 660.64 545.04 674.33 C 497.89 680.38 450.80 687.07 404.11 696.07 C 361.04 704.50 318.00 713.88 276.47 728.24 C 265.07 732.38 253.66 736.50 242.45 741.15 C 237.59 743.24 232.07 743.26 226.91 742.51 C 221.29 741.37 215.42 737.08 215.18 730.91 C 214.78 725.43 218.85 720.95 223.19 718.23 C 237.15 710.61 252.21 705.33 267.12 699.92 C 266.78 694.36 264.78 688.70 265.61 683.02 C 266.27 679.78 267.57 676.71 269.10 673.81 C 279.04 655.89 290.93 639.19 302.70 622.45 C 365.19 537.05 433.14 455.64 505.64 378.61 C 508.55 374.73 513.33 372.99 516.48 369.34 Z" />
<path fill="#010000" opacity="1.00" d=" M 814.66 458.37 C 818.40 456.41 823.25 458.83 824.67 462.64 C 827.23 467.29 828.39 473.55 824.99 478.09 C 822.31 480.70 818.47 481.54 815.20 483.18 C 784.22 497.28 753.17 511.23 722.80 526.62 C 719.06 528.45 715.42 530.47 711.52 531.94 C 711.45 532.52 711.31 533.67 711.24 534.24 C 732.51 536.42 753.96 537.96 774.88 542.65 C 778.71 543.33 780.24 547.02 781.72 550.14 C 784.56 554.12 788.41 558.29 787.81 563.58 C 787.85 566.29 785.33 567.86 783.39 569.26 C 769.12 578.35 753.73 585.50 738.13 591.95 C 718.92 599.47 699.71 607.10 679.91 612.93 C 669.83 616.10 659.23 616.96 649.03 619.58 C 646.84 620.07 644.96 621.30 643.25 622.70 C 642.05 622.43 640.35 622.89 639.76 621.51 C 638.37 617.37 637.17 612.14 640.41 608.52 C 643.15 606.07 646.76 604.91 649.96 603.18 C 661.64 597.07 674.06 592.61 686.21 587.57 C 707.34 579.50 728.36 571.12 749.14 562.19 C 751.19 561.16 754.24 560.67 754.09 557.75 C 745.07 557.24 736.11 555.85 727.08 555.54 C 720.73 555.15 714.37 553.95 708.01 554.60 C 695.16 560.58 682.91 567.77 670.19 574.02 C 653.05 582.68 635.75 591.02 618.37 599.20 C 601.75 606.73 585.45 615.11 568.19 621.14 C 563.69 622.50 558.96 624.49 554.19 623.37 C 550.28 622.26 549.03 618.06 547.35 614.86 C 541.98 613.20 538.78 606.49 541.47 601.43 C 543.88 596.12 547.27 591.34 549.93 586.16 C 549.00 586.42 547.16 586.96 546.23 587.22 C 531.48 597.34 516.35 606.96 500.54 615.36 C 492.26 619.61 483.71 623.75 474.41 625.16 C 471.24 625.64 467.86 625.46 464.97 623.99 C 461.94 622.28 460.73 618.88 458.85 616.18 C 456.67 614.13 453.20 613.36 452.04 610.34 C 448.59 604.67 451.66 598.15 453.83 592.64 C 459.77 579.84 469.17 569.01 478.84 558.89 C 498.09 538.80 519.93 521.04 544.20 507.37 C 554.05 501.97 564.58 496.98 575.97 496.39 C 579.65 496.50 583.50 497.27 586.57 499.42 C 589.96 501.76 591.14 506.19 594.82 508.21 C 598.24 510.25 600.62 513.85 600.90 517.86 C 604.49 517.53 606.48 514.14 608.98 511.97 C 619.50 502.54 629.67 492.69 640.74 483.90 C 645.49 481.66 650.16 479.12 655.16 477.47 C 658.43 477.35 662.53 478.96 663.36 482.50 C 663.83 484.16 663.73 485.92 663.78 487.64 C 657.65 493.19 651.92 499.18 646.51 505.41 C 620.88 532.70 596.84 561.49 574.38 591.46 C 572.94 593.33 571.83 595.43 571.11 597.68 C 596.71 590.01 621.55 579.97 647.08 572.06 C 651.98 570.12 657.02 568.54 662.08 567.07 C 670.37 564.22 678.77 561.71 687.12 559.06 C 691.12 557.11 696.70 557.56 699.53 553.79 C 694.30 552.33 688.77 552.77 683.57 551.26 C 681.14 550.47 678.69 548.71 678.39 545.99 C 677.70 541.47 673.32 537.96 674.44 533.14 C 675.55 528.80 679.72 526.43 683.23 524.17 C 703.04 511.52 723.84 500.50 744.83 489.95 C 767.66 478.50 790.76 467.44 814.66 458.37 M 550.61 528.99 C 526.01 544.48 503.78 563.82 485.38 586.34 C 481.91 591.29 477.59 595.94 475.95 601.90 C 477.70 601.48 479.50 601.12 481.16 600.38 C 498.04 592.92 513.96 583.51 529.48 573.58 C 545.03 563.49 560.27 552.92 575.14 541.86 C 575.51 539.56 576.16 537.32 577.03 535.16 C 577.38 534.14 577.73 533.13 578.09 532.12 C 579.46 527.18 580.97 522.21 580.74 517.02 C 569.71 517.78 560.06 523.81 550.61 528.99 Z" />
<path fill="#010000" opacity="1.00" d=" M 911.43 465.64 C 917.61 463.60 924.77 460.48 931.01 464.01 C 934.68 465.76 935.34 470.60 939.14 472.15 C 944.07 474.31 948.00 480.60 945.29 485.80 C 942.13 493.80 936.15 500.19 930.50 506.51 C 914.07 522.32 894.89 535.14 874.57 545.42 C 863.39 551.58 851.49 556.46 839.27 560.16 C 836.22 561.27 833.05 560.18 830.06 559.47 C 822.96 569.01 815.43 578.31 809.66 588.76 C 809.12 589.96 808.71 591.22 808.44 592.52 C 812.69 592.13 816.62 590.36 820.64 589.06 C 847.06 579.74 872.63 568.26 898.45 557.45 C 920.18 548.19 942.00 539.15 963.82 530.11 C 979.48 511.40 995.55 493.00 1011.62 474.63 C 1014.88 469.92 1020.69 468.37 1025.19 465.16 C 1026.93 463.78 1028.82 465.94 1030.51 466.49 C 1031.68 470.94 1034.38 475.44 1032.96 480.15 C 1032.46 483.37 1029.43 485.42 1028.89 488.66 C 1035.17 486.89 1040.71 483.31 1046.80 481.03 C 1065.52 473.63 1084.76 466.58 1104.96 464.77 C 1111.09 463.99 1117.66 464.40 1123.16 467.43 C 1125.28 468.48 1126.05 470.83 1127.07 472.79 C 1128.39 476.03 1132.66 476.45 1134.31 479.50 C 1135.76 482.16 1137.44 485.34 1136.23 488.42 C 1133.56 495.93 1127.76 501.73 1122.03 507.03 C 1107.62 519.47 1091.28 529.46 1074.54 538.41 C 1055.88 547.92 1036.69 556.49 1016.82 563.12 C 1014.00 564.27 1010.38 564.40 1008.65 567.28 C 1052.03 578.52 1095.30 590.31 1137.96 604.09 C 1158.34 610.54 1178.64 617.27 1198.90 624.11 C 1231.79 634.98 1264.76 645.64 1297.21 657.80 C 1299.96 658.99 1304.61 659.27 1303.91 663.45 C 1295.13 665.81 1285.98 663.75 1277.06 663.67 C 1264.71 663.80 1252.41 662.50 1240.08 662.41 C 1227.76 661.39 1215.39 661.77 1203.08 660.70 C 1189.71 660.80 1176.39 659.42 1163.03 659.52 C 1158.00 659.48 1153.01 658.61 1147.98 658.68 C 1137.54 658.66 1127.14 657.54 1116.71 657.57 C 1122.41 656.51 1128.24 656.53 1134.03 656.38 C 1164.90 654.06 1195.83 653.25 1226.74 651.66 C 1226.70 651.15 1226.60 650.14 1226.56 649.63 C 1208.99 645.36 1191.50 640.73 1174.08 635.90 C 1168.06 634.39 1162.06 632.84 1156.17 630.90 C 1153.80 630.29 1151.45 629.64 1149.13 628.91 C 1119.46 621.03 1089.88 612.82 1060.22 604.92 C 1038.64 599.47 1017.12 593.80 995.41 588.90 C 981.97 586.04 968.65 582.55 955.04 580.63 C 953.00 580.31 950.95 580.25 948.91 580.33 C 942.75 587.97 935.44 594.59 928.62 601.62 C 924.88 605.70 919.27 606.94 914.72 609.81 C 912.50 611.14 911.21 614.64 908.11 613.61 C 905.70 611.09 905.25 607.28 904.78 603.97 C 904.54 598.24 908.69 593.97 911.90 589.74 C 917.38 582.79 922.90 575.87 928.63 569.14 C 928.59 565.76 929.10 562.42 929.83 559.14 C 920.15 562.87 911.19 568.18 901.84 572.62 C 877.36 584.76 853.02 597.33 827.57 607.34 C 820.86 609.98 813.97 612.27 806.84 613.43 C 803.53 613.79 799.84 614.07 796.99 612.03 C 794.45 610.02 793.91 606.33 791.11 604.57 C 789.10 603.06 786.68 601.72 785.83 599.20 C 784.04 594.37 786.31 589.35 788.08 584.87 C 794.16 572.22 802.13 560.56 810.83 549.58 C 811.84 548.38 811.59 546.72 811.71 545.28 C 812.50 544.37 813.31 543.48 814.14 542.61 C 815.86 542.02 817.51 541.15 818.60 539.65 C 830.97 525.03 844.62 511.50 859.12 499.00 C 874.99 485.70 891.99 473.17 911.43 465.64 M 1090.94 487.62 C 1063.46 493.83 1037.56 505.51 1012.83 518.79 C 1005.90 523.03 998.29 526.67 993.10 533.15 C 988.51 538.84 983.09 543.77 978.47 549.43 C 976.52 551.86 973.56 553.69 972.88 556.94 C 983.04 556.24 992.71 552.59 1002.34 549.50 C 1025.86 541.02 1048.89 531.00 1070.52 518.43 C 1085.91 509.24 1101.39 499.41 1113.05 485.56 C 1105.64 484.44 1098.20 486.32 1090.94 487.62 M 911.19 488.56 C 890.35 499.11 871.82 513.86 855.53 530.51 C 853.70 532.36 851.58 534.13 850.96 536.79 C 857.01 535.13 862.38 531.73 868.01 529.05 C 883.32 520.61 897.74 510.44 910.45 498.42 C 914.36 494.25 919.17 490.45 921.19 484.93 C 917.68 485.59 914.35 486.93 911.19 488.56 Z" />
</g>
</svg>
